# Blender v3.5.1 OBJ File: ''
# www.blender.org
mtllib Chestbottom.mtl
o Cube_Cube.001
v -1.000000 -1.021776 1.000000
v -0.941267 -0.021776 0.941267
v -1.000000 -1.021776 -1.000000
v -0.941267 -0.021776 -0.941267
v 1.000000 -1.021776 1.000000
v 0.941267 -0.021776 0.941267
v 1.000000 -1.021776 -1.000000
v 0.941267 -0.021776 -0.941267
v -1.000000 -0.021776 1.000000
v -1.000000 -0.021776 -1.000000
v 1.000000 -0.021776 -1.000000
v 1.000000 -0.021776 1.000000
v -0.941267 -0.821776 0.941267
v -0.941267 -0.821776 -0.941267
v 0.941267 -0.821776 -0.941267
v 0.941267 -0.821776 0.941267
vt 0.375000 0.000000
vt 0.625000 0.000000
vt 0.625000 0.250000
vt 0.375000 0.250000
vt 0.625000 0.500000
vt 0.375000 0.500000
vt 0.625000 0.750000
vt 0.375000 0.750000
vt 0.625000 1.000000
vt 0.375000 1.000000
vt 0.125000 0.500000
vt 0.125000 0.750000
vt 0.632342 0.742658
vt 0.632342 0.507342
vt 0.632342 0.507342
vt 0.632342 0.742658
vt 0.867658 0.742658
vt 0.867658 0.507342
vt 0.875000 0.500000
vt 0.875000 0.750000
vt 0.867658 0.507342
vt 0.867658 0.742658
vn -1.0000 0.0000 0.0000
vn 0.0000 0.0000 -1.0000
vn 1.0000 0.0000 0.0000
vn 0.0000 0.0000 1.0000
vn 0.0000 -1.0000 0.0000
vn 0.0000 1.0000 0.0000
usemtl None
s off
f 1/1/1 9/2/1 10/3/1 3/4/1
f 3/4/2 10/3/2 11/5/2 7/6/2
f 7/6/3 11/5/3 12/7/3 5/8/3
f 5/8/4 12/7/4 9/9/4 1/10/4
f 3/11/5 7/6/5 5/8/5 1/12/5
f 6/13/1 8/14/1 15/15/1 16/16/1
f 2/17/6 4/18/6 10/19/6 9/20/6
f 4/18/6 8/14/6 11/5/6 10/19/6
f 8/14/6 6/13/6 12/7/6 11/5/6
f 6/13/6 2/17/6 9/20/6 12/7/6
f 15/15/6 14/21/6 13/22/6 16/16/6
f 4/18/3 2/17/3 13/22/3 14/21/3
f 2/17/2 6/13/2 16/16/2 13/22/2
f 8/14/4 4/18/4 14/21/4 15/15/4
