# Blender v3.5.1 OBJ File: ''
# www.blender.org
mtllib Chesttop.mtl
o Cylinder
v 1.000000 -0.003875 -1.000000
v -1.000000 -0.003875 -1.000000
v 1.000000 0.152197 -0.980785
v -1.000000 0.152197 -0.980785
v 1.000000 0.302272 -0.923880
v -1.000000 0.302272 -0.923880
v 1.000000 0.440581 -0.831470
v -1.000000 0.440581 -0.831470
v 1.000000 0.561810 -0.707107
v -1.000000 0.561810 -0.707107
v 1.000000 0.661300 -0.555570
v -1.000000 0.661301 -0.555570
v 1.000000 0.735228 -0.382683
v -1.000000 0.735229 -0.382683
v 1.000000 0.780753 -0.195090
v -1.000000 0.780753 -0.195090
v 1.000000 0.796125 0.000000
v -1.000000 0.796125 0.000000
v 1.000000 0.780753 0.195090
v -1.000000 0.780753 0.195090
v 1.000000 0.735228 0.382683
v -1.000000 0.735229 0.382683
v 1.000000 0.661300 0.555570
v -1.000000 0.661301 0.555570
v 1.000000 0.561810 0.707107
v -1.000000 0.561810 0.707107
v 1.000000 0.440581 0.831470
v -1.000000 0.440581 0.831470
v 1.000000 0.302272 0.923880
v -1.000000 0.302272 0.923880
v 1.000000 0.152197 0.980785
v -1.000000 0.152197 0.980785
v 1.000000 -0.003875 1.000000
v -1.000000 -0.003875 1.000000
v -0.917294 -0.021296 0.915150
v 0.917294 -0.021297 0.915150
v -0.917294 -0.021296 -0.915150
v 0.917294 -0.021297 -0.915150
v -1.000000 -0.021296 0.997855
v 1.000000 -0.021297 0.997855
v -1.000000 -0.021296 -0.997855
v 1.000000 -0.021297 -0.997855
v -0.917294 0.278704 0.915150
v 0.917294 0.278704 0.915150
v -0.917294 0.278704 -0.915150
v 0.917294 0.278704 -0.915150
vt 1.000000 0.500000
vt 1.000000 1.000000
vt 0.968750 1.000000
vt 0.968750 0.500000
vt 0.937500 1.000000
vt 0.937500 0.500000
vt 0.906250 1.000000
vt 0.906250 0.500000
vt 0.875000 1.000000
vt 0.875000 0.500000
vt 0.843750 1.000000
vt 0.843750 0.500000
vt 0.812500 1.000000
vt 0.812500 0.500000
vt 0.781250 1.000000
vt 0.781250 0.500000
vt 0.750000 1.000000
vt 0.750000 0.500000
vt 0.718750 1.000000
vt 0.718750 0.500000
vt 0.687500 1.000000
vt 0.687500 0.500000
vt 0.656250 1.000000
vt 0.656250 0.500000
vt 0.625000 1.000000
vt 0.625000 0.500000
vt 0.593750 1.000000
vt 0.593750 0.500000
vt 0.562500 1.000000
vt 0.562500 0.500000
vt 0.531250 1.000000
vt 0.531250 0.500000
vt 0.500000 1.000000
vt 0.500000 0.500000
vt 0.496512 0.500000
vt 0.496512 1.000000
vt 0.244774 0.010515
vt 0.250000 0.010000
vt 0.296822 0.014612
vt 0.341844 0.028269
vt 0.383337 0.050447
vt 0.419706 0.080294
vt 0.449553 0.116663
vt 0.471731 0.158156
vt 0.485388 0.203178
vt 0.490000 0.250000
vt 0.485388 0.296822
vt 0.471731 0.341844
vt 0.449553 0.383337
vt 0.419706 0.419706
vt 0.383337 0.449553
vt 0.341844 0.471731
vt 0.296822 0.485388
vt 0.250000 0.490000
vt 0.244774 0.489485
vt 0.003488 1.000000
vt 0.000000 1.000000
vt 0.000000 0.500000
vt 0.003488 0.500000
vt 0.744774 0.489485
vt 0.750000 0.490000
vt 0.796822 0.485388
vt 0.841844 0.471731
vt 0.883337 0.449553
vt 0.919706 0.419706
vt 0.949553 0.383337
vt 0.971731 0.341844
vt 0.985388 0.296822
vt 0.990000 0.250000
vt 0.985388 0.203178
vt 0.971731 0.158156
vt 0.949553 0.116663
vt 0.919706 0.080294
vt 0.883337 0.050447
vt 0.841844 0.028269
vt 0.796822 0.014612
vt 0.750000 0.010000
vt 0.744774 0.010515
vt 0.625000 0.510606
vt 0.625000 0.739394
vt 0.625000 0.739394
vt 0.625000 0.510606
vt 0.625000 0.739394
vt 0.625000 0.749732
vt 0.625000 0.749732
vt 0.625000 0.510606
vt 0.625000 0.500268
vt 0.625000 0.500268
vt 0.625000 0.739394
vt 0.625000 0.510606
vn 0.0000 0.1222 -0.9925
vn 0.0000 0.3546 -0.9350
vn 0.0000 0.5555 -0.8315
vn 0.0000 0.7161 -0.6980
vn 0.0000 0.8359 -0.5488
vn 0.0000 0.9195 -0.3932
vn 0.0000 0.9718 -0.2358
vn 0.0000 0.9969 -0.0785
vn 0.0000 0.9969 0.0785
vn 0.0000 0.9718 0.2358
vn 0.0000 0.9195 0.3932
vn 0.0000 0.8359 0.5488
vn 0.0000 0.7161 0.6980
vn 0.0000 0.5555 0.8315
vn 0.0000 0.3546 0.9350
vn 0.0000 0.1222 0.9925
vn 0.0000 -0.1222 0.9925
vn -1.0000 0.0000 0.0000
vn 0.0000 -0.1222 -0.9925
vn 1.0000 -0.0000 0.0000
vn -0.0000 -1.0000 0.0000
vn 0.0000 0.0000 1.0000
vn 0.0000 0.0000 -1.0000
usemtl None
s off
f 1/1/1 2/2/1 4/3/1 3/4/1
f 3/4/2 4/3/2 6/5/2 5/6/2
f 5/6/3 6/5/3 8/7/3 7/8/3
f 7/8/4 8/7/4 10/9/4 9/10/4
f 9/10/5 10/9/5 12/11/5 11/12/5
f 11/12/6 12/11/6 14/13/6 13/14/6
f 13/14/7 14/13/7 16/15/7 15/16/7
f 15/16/8 16/15/8 18/17/8 17/18/8
f 17/18/9 18/17/9 20/19/9 19/20/9
f 19/20/10 20/19/10 22/21/10 21/22/10
f 21/22/11 22/21/11 24/23/11 23/24/11
f 23/24/12 24/23/12 26/25/12 25/26/12
f 25/26/13 26/25/13 28/27/13 27/28/13
f 27/28/14 28/27/14 30/29/14 29/30/14
f 29/30/15 30/29/15 32/31/15 31/32/15
f 31/32/16 32/31/16 34/33/16 33/34/16
f 40/35/17 33/34/17 34/33/17 39/36/17
f 39/37/18 34/38/18 32/39/18 30/40/18 28/41/18 26/42/18 24/43/18 22/44/18 20/45/18 18/46/18 16/47/18 14/48/18 12/49/18 10/50/18 8/51/18 6/52/18 4/53/18 2/54/18 41/55/18
f 41/56/19 2/57/19 1/58/19 42/59/19
f 42/60/20 1/61/20 3/62/20 5/63/20 7/64/20 9/65/20 11/66/20 13/67/20 15/68/20 17/69/20 19/70/20 21/71/20 23/72/20 25/73/20 27/74/20 29/75/20 31/76/20 33/77/20 40/78/20
f 38/79/18 36/80/18 44/81/18 46/82/18
f 35/83/21 36/80/21 40/84/21 39/85/21
f 38/79/21 37/86/21 41/87/21 42/88/21
f 37/86/21 35/83/21 39/85/21 41/87/21
f 36/80/21 38/79/21 42/88/21 40/84/21
f 46/82/21 44/81/21 43/89/21 45/90/21
f 37/86/22 38/79/22 46/82/22 45/90/22
f 35/83/20 37/86/20 45/90/20 43/89/20
f 36/80/23 35/83/23 43/89/23 44/81/23
